# xmcd
#
# Track frame offsets:
#	183
#	17125
#	30185
#	42035
#	51500
#	61570
#	73770
#	87255
#	99150
#	112740
#	122710
#	133098
#	145783
#	156658
#	167093
#	179818
#
# Disc length: 2575 seconds
#
# Revision: 2
# Processed by: cddbd v1.5.2PL0 Copyright (c) Steve Scherf et al.
# Submitted via: audiograbber 1.83.01
#
DISCID=d50a0d10
DTITLE=Lynn Anderson and Dolly Parton - Lynn Anderson and Dolly Parton
DYEAR=1900
DGENRE=
TTITLE0=Lynn Anderson - Blue Bayou
TTITLE1=Lynn Anderson - Rosegarden
TTITLE2=Dolly Parton - Letter To Heaven
TTITLE3=Lynn Anderson - Snowbird
TTITLE4=Lynn Anderson - Fool Me One More Time
TTITLE5=Dolly Parton - Two Little Orphans
TTITLE6=Lynn Anderson - Talking In Your Sleep
TTITLE7=Dolly Parton - Makin' Believe
TTITLE8=Lynn Anderson - Two Doors Down
TTITLE9=Dolly Parton - Release Me
TTITLE10=Lynn Anderson - I've Been Everywhere
TTITLE11=Lynn Anderson - Danny's Song
TTITLE12=Dolly Parton - Honky Tonk Angels
TTITLE13=Lynn Anderson - Heartbreak Hotel
TTITLE14=Dolly Parton - Little Blossom
TTITLE15=Lynn Anderson - Keep Me In Mind
EXTD=
EXTT0=
EXTT1=
EXTT2=
EXTT3=
EXTT4=
EXTT5=
EXTT6=
EXTT7=
EXTT8=
EXTT9=
EXTT10=
EXTT11=
EXTT12=
EXTT13=
EXTT14=
EXTT15=
PLAYORDER=
